<?xml version="1.0" encoding="UTF-8"?>
<svg xmlns="http://www.w3.org/2000/svg" xmlns:xlink="http://www.w3.org/1999/xlink" width="32px" height="32px" viewBox="0 0 32 32" version="1.1">
<g id="surface1">
<path style=" stroke:none;fill-rule:evenodd;fill:rgb(0%,0%,0%);fill-opacity:1;" d="M 14.667969 22.667969 C 14.667969 23.402344 15.261719 24 16 24 C 16.738281 24 17.332031 23.402344 17.332031 22.667969 L 17.332031 17.332031 L 22.667969 17.332031 C 23.402344 17.332031 24 16.738281 24 16 C 24 15.261719 23.402344 14.667969 22.667969 14.667969 L 17.332031 14.667969 L 17.332031 9.332031 C 17.332031 8.597656 16.738281 8 16 8 C 15.261719 8 14.667969 8.597656 14.667969 9.332031 L 14.667969 14.667969 L 9.332031 14.667969 C 8.597656 14.667969 8 15.261719 8 16 C 8 16.738281 8.597656 17.332031 9.332031 17.332031 L 14.667969 17.332031 Z M 14.667969 22.667969 "/>
</g>
</svg>
